<svg width="12" height="11" viewBox="0 0 12 11" fill="none" xmlns="http://www.w3.org/2000/svg">
<path d="M9.82727 0.165249C9.77292 0.113478 9.70838 0.0724109 9.63736 0.0443925C9.56634 0.0163741 9.49022 0.00195313 9.41335 0.00195312C9.2581 0.00195312 9.10921 0.0606926 8.99943 0.165249C8.88965 0.269806 8.82797 0.411616 8.82797 0.559482C8.82797 0.707347 8.88965 0.849157 8.99943 0.953714L9.75732 1.66999H0.668472C0.513853 1.66999 0.365567 1.72849 0.256234 1.83263C0.146902 1.93676 0.0854802 2.07799 0.0854802 2.22525C0.0854802 2.37251 0.146902 2.51375 0.256234 2.61788C0.365567 2.72201 0.513853 2.78051 0.668472 2.78051H9.75732L8.99943 3.49679C8.94478 3.54841 8.90141 3.60982 8.87181 3.67748C8.84222 3.74514 8.82698 3.81772 8.82698 3.89102C8.82698 3.96432 8.84222 4.0369 8.87181 4.10456C8.90141 4.17222 8.94478 4.23363 8.99943 4.28525C9.05362 4.3373 9.1181 4.3786 9.18914 4.40679C9.26019 4.43498 9.33639 4.4495 9.41335 4.4495C9.49031 4.4495 9.56651 4.43498 9.63755 4.40679C9.7086 4.3786 9.77308 4.3373 9.82727 4.28525L11.5762 2.61948C11.6309 2.56786 11.6743 2.50645 11.7039 2.43879C11.7335 2.37113 11.7487 2.29855 11.7487 2.22525C11.7487 2.15195 11.7335 2.07938 11.7039 2.01171C11.6743 1.94405 11.6309 1.88264 11.5762 1.83102L9.82727 0.165249Z" fill="black"/>
<path d="M11.1623 7.22245H2.07341L2.8313 6.50617C2.94108 6.40161 3.00276 6.2598 3.00276 6.11194C3.00276 5.96407 2.94108 5.82226 2.8313 5.71771C2.72152 5.61315 2.57263 5.55441 2.41738 5.55441C2.26213 5.55441 2.11323 5.61315 2.00345 5.71771L0.254479 7.38348C0.199836 7.43509 0.156465 7.49651 0.126867 7.56417C0.0972696 7.63183 0.0820312 7.70441 0.0820312 7.77771C0.0820313 7.85101 0.0972696 7.92358 0.126867 7.99125C0.156465 8.05891 0.199836 8.12032 0.254479 8.17194L2.00345 9.83771C2.05765 9.88975 2.12213 9.93106 2.19317 9.95925C2.26422 9.98744 2.34042 10.002 2.41738 10.002C2.49434 10.002 2.57054 9.98744 2.64158 9.95925C2.71263 9.93106 2.77711 9.88975 2.8313 9.83771C2.88595 9.78609 2.92932 9.72468 2.95891 9.65702C2.98851 9.58935 3.00375 9.51678 3.00375 9.44348C3.00375 9.37018 2.98851 9.2976 2.95891 9.22994C2.92932 9.16228 2.88595 9.10086 2.8313 9.04925L2.07341 8.33296H11.1623C11.3169 8.33296 11.4652 8.27446 11.5745 8.17033C11.6838 8.0662 11.7452 7.92497 11.7452 7.77771C11.7452 7.63044 11.6838 7.48921 11.5745 7.38508C11.4652 7.28095 11.3169 7.22245 11.1623 7.22245Z" fill="black"/>
</svg>
