<svg width="46" height="46" viewBox="0 0 46 46" fill="none" xmlns="http://www.w3.org/2000/svg">
<path d="M23.3361 16.0009H27.8361C28.4328 16.0009 29.0051 15.7638 29.427 15.3419C29.849 14.9199 30.0861 14.3476 30.0861 13.7509C30.0861 13.1541 29.849 12.5818 29.427 12.1599C29.0051 11.7379 28.4328 11.5009 27.8361 11.5009H25.5861C25.5861 10.9041 25.349 10.3318 24.927 9.90988C24.5051 9.48792 23.9328 9.25087 23.3361 9.25087C22.7393 9.25087 22.167 9.48792 21.7451 9.90988C21.3231 10.3318 21.0861 10.9041 21.0861 11.5009V11.9059C19.598 12.4458 18.347 13.4916 17.5518 14.8604C16.7566 16.2292 16.4678 17.834 16.7359 19.3941C17.004 20.9543 17.8119 22.3706 19.0183 23.3955C20.2248 24.4203 21.7531 24.9886 23.3361 25.0009C23.9328 25.0009 24.5051 25.2379 24.927 25.6599C25.349 26.0818 25.5861 26.6541 25.5861 27.2509C25.5861 27.8476 25.349 28.4199 24.927 28.8419C24.5051 29.2638 23.9328 29.5009 23.3361 29.5009H18.8361C18.2393 29.5009 17.667 29.7379 17.2451 30.1599C16.8231 30.5818 16.5861 31.1541 16.5861 31.7509C16.5861 32.3476 16.8231 32.9199 17.2451 33.3419C17.667 33.7638 18.2393 34.0009 18.8361 34.0009H21.0861C21.0861 34.5976 21.3231 35.1699 21.7451 35.5919C22.167 36.0138 22.7393 36.2509 23.3361 36.2509C23.9328 36.2509 24.5051 36.0138 24.927 35.5919C25.349 35.1699 25.5861 34.5976 25.5861 34.0009V33.5959C27.0741 33.0559 28.3251 32.0101 29.1203 30.6413C29.9155 29.2725 30.2043 27.6678 29.9362 26.1076C29.6681 24.5475 28.8603 23.1312 27.6538 22.1063C26.4473 21.0814 24.919 20.5131 23.3361 20.5009C22.7393 20.5009 22.167 20.2638 21.7451 19.8419C21.3231 19.4199 21.0861 18.8476 21.0861 18.2509C21.0861 17.6541 21.3231 17.0818 21.7451 16.6599C22.167 16.2379 22.7393 16.0009 23.3361 16.0009Z" fill="#EC1A25"/>
<path d="M23.3359 0.250977C18.8859 0.250977 14.5357 1.57058 10.8356 4.04291C7.13551 6.51524 4.25163 10.0293 2.54866 14.1406C0.845686 18.2519 0.400111 22.7759 1.26828 27.1405C2.13645 31.5051 4.27936 35.5142 7.42604 38.6609C10.5727 41.8076 14.5818 43.9505 18.9464 44.8186C23.311 45.6868 27.835 45.2412 31.9463 43.5383C36.0577 41.8353 39.5717 38.9514 42.044 35.2513C44.5163 31.5512 45.8359 27.2011 45.8359 22.751C45.8359 19.7962 45.254 16.8704 44.1232 14.1406C42.9925 11.4108 41.3352 8.93039 39.2458 6.84107C37.1565 4.75176 34.6761 3.09442 31.9463 1.96369C29.2165 0.832956 26.2907 0.250977 23.3359 0.250977ZM23.3359 40.751C19.7759 40.751 16.2958 39.6953 13.3357 37.7174C10.3756 35.7396 8.06849 32.9283 6.70612 29.6393C5.34374 26.3502 4.98728 22.731 5.68181 19.2393C6.37635 15.7477 8.09068 12.5404 10.608 10.0231C13.1254 7.50571 16.3327 5.79138 19.8243 5.09684C23.316 4.40231 26.9352 4.75877 30.2242 6.12114C33.5133 7.48352 36.3245 9.79063 38.3024 12.7507C40.2803 15.7108 41.3359 19.1909 41.3359 22.751C41.3359 27.5249 39.4395 32.1032 36.0639 35.4789C32.6882 38.8545 28.1098 40.751 23.3359 40.751Z" fill="#EC1A25"/>
</svg>
