<svg width="31" height="40" viewBox="0 0 31 40" fill="none" xmlns="http://www.w3.org/2000/svg">
<path d="M26.75 11.6221C26.75 8.63838 25.5647 5.7769 23.455 3.66712C21.3452 1.55733 18.4837 0.37207 15.5 0.37207C12.5163 0.37207 9.65483 1.55733 7.54505 3.66712C5.43527 5.7769 4.25 8.63838 4.25 11.6221V17.5846C3.15585 17.9714 2.20812 18.6872 1.53676 19.6338C0.865397 20.5804 0.503262 21.7115 0.5 22.8721V34.1221C0.5 35.6139 1.09263 37.0447 2.14752 38.0995C3.20242 39.1544 4.63316 39.7471 6.125 39.7471H24.875C26.3668 39.7471 27.7976 39.1544 28.8525 38.0995C29.9074 37.0447 30.5 35.6139 30.5 34.1221V22.8721C30.5006 21.7083 30.1403 20.5731 29.4686 19.6227C28.797 18.6724 27.8472 17.9537 26.75 17.5658C26.7672 17.4603 26.7672 17.3526 26.75 17.2471V11.6221ZM8 11.6221C8 9.63294 8.79018 7.72529 10.1967 6.31877C11.6032 4.91225 13.5109 4.12207 15.5 4.12207C17.4891 4.12207 19.3968 4.91225 20.8033 6.31877C22.2098 7.72529 23 9.63294 23 11.6221V17.2471H8V11.6221ZM26.75 22.8721V34.1221C26.75 34.6193 26.5525 35.0963 26.2008 35.4479C25.8492 35.7995 25.3723 35.9971 24.875 35.9971H6.125C5.62772 35.9971 5.15081 35.7995 4.79918 35.4479C4.44755 35.0963 4.25 34.6193 4.25 34.1221V22.8721C4.25 22.3748 4.44755 21.8979 4.79918 21.5462C5.15081 21.1946 5.62772 20.9971 6.125 20.9971H24.875C25.3723 20.9971 25.8492 21.1946 26.2008 21.5462C26.5525 21.8979 26.75 22.3748 26.75 22.8721Z" fill="#EC1A25"/>
<path d="M15.4995 24.7469C15.0022 24.7469 14.5253 24.9445 14.1737 25.2961C13.822 25.6477 13.6245 26.1247 13.6245 26.6219V28.4969C13.6245 28.9942 13.822 29.4711 14.1737 29.8228C14.5253 30.1744 15.0022 30.3719 15.4995 30.3719C15.9968 30.3719 16.4737 30.1744 16.8253 29.8228C17.1769 29.4711 17.3745 28.9942 17.3745 28.4969V26.6219C17.3745 26.1247 17.1769 25.6477 16.8253 25.2961C16.4737 24.9445 15.9968 24.7469 15.4995 24.7469Z" fill="#EC1A25"/>
</svg>
