<svg width="189" height="189" viewBox="0 0 189 189" fill="none" xmlns="http://www.w3.org/2000/svg">
<mask id="path-1-outside-1_131_197" maskUnits="userSpaceOnUse" x="-0.5" y="-0.798828" width="190" height="190" fill="black">
<rect fill="white" x="-0.5" y="-0.798828" width="190" height="190"/>
<path d="M184.785 94.3435C184.785 144.128 144.427 184.486 94.6423 184.486C44.8581 184.486 4.5 144.128 4.5 94.3435C4.5 44.5593 44.8581 4.20117 94.6423 4.20117C144.427 4.20117 184.785 44.5593 184.785 94.3435ZM47.3176 94.3435C47.3176 120.48 68.5056 141.668 94.6423 141.668C120.779 141.668 141.967 120.48 141.967 94.3435C141.967 68.2068 120.779 47.0188 94.6423 47.0188C68.5056 47.0188 47.3176 68.2068 47.3176 94.3435Z"/>
</mask>
<path d="M184.785 94.3435C184.785 144.128 144.427 184.486 94.6423 184.486C44.8581 184.486 4.5 144.128 4.5 94.3435C4.5 44.5593 44.8581 4.20117 94.6423 4.20117C144.427 4.20117 184.785 44.5593 184.785 94.3435ZM47.3176 94.3435C47.3176 120.48 68.5056 141.668 94.6423 141.668C120.779 141.668 141.967 120.48 141.967 94.3435C141.967 68.2068 120.779 47.0188 94.6423 47.0188C68.5056 47.0188 47.3176 68.2068 47.3176 94.3435Z" fill="#252525"/>
<path d="M184.785 94.3435C184.785 144.128 144.427 184.486 94.6423 184.486C44.8581 184.486 4.5 144.128 4.5 94.3435C4.5 44.5593 44.8581 4.20117 94.6423 4.20117C144.427 4.20117 184.785 44.5593 184.785 94.3435ZM47.3176 94.3435C47.3176 120.48 68.5056 141.668 94.6423 141.668C120.779 141.668 141.967 120.48 141.967 94.3435C141.967 68.2068 120.779 47.0188 94.6423 47.0188C68.5056 47.0188 47.3176 68.2068 47.3176 94.3435Z" stroke="white" stroke-width="8.33333" mask="url(#path-1-outside-1_131_197)"/>
</svg>
