<svg width="156" height="189" viewBox="0 0 156 189" fill="none" xmlns="http://www.w3.org/2000/svg">
<mask id="path-1-outside-1_131_199" maskUnits="userSpaceOnUse" x="0.5" y="-0.798828" width="156" height="190" fill="black">
<rect fill="white" x="0.5" y="-0.798828" width="156" height="190"/>
<path d="M61.6424 4.20117C75.9833 4.20117 90.1172 7.62278 102.87 14.1818C115.623 20.7409 126.628 30.248 134.969 41.9136C143.31 53.5793 148.747 67.0667 150.83 81.2556C152.912 95.4446 151.578 109.926 146.941 123.496C142.303 137.066 134.494 149.334 124.163 159.28C113.832 169.227 101.277 176.565 87.5408 180.685C73.8045 184.806 59.2834 185.589 45.1835 182.971C31.0837 180.352 17.8121 174.407 6.47096 165.63L32.6774 131.769C38.6315 136.377 45.5991 139.498 53.0015 140.873C60.4039 142.247 68.0275 141.836 75.239 139.673C82.4506 137.51 89.042 133.657 94.4657 128.435C99.8894 123.213 103.989 116.773 106.424 109.648C108.859 102.524 109.559 94.9216 108.466 87.4724C107.372 80.0232 104.518 72.9423 100.139 66.8178C95.7596 60.6934 89.9824 55.7021 83.287 52.2586C76.5917 48.8151 69.1713 47.0188 61.6423 47.0188L61.6424 4.20117Z"/>
</mask>
<path d="M61.6424 4.20117C75.9833 4.20117 90.1172 7.62278 102.87 14.1818C115.623 20.7409 126.628 30.248 134.969 41.9136C143.31 53.5793 148.747 67.0667 150.83 81.2556C152.912 95.4446 151.578 109.926 146.941 123.496C142.303 137.066 134.494 149.334 124.163 159.28C113.832 169.227 101.277 176.565 87.5408 180.685C73.8045 184.806 59.2834 185.589 45.1835 182.971C31.0837 180.352 17.8121 174.407 6.47096 165.63L32.6774 131.769C38.6315 136.377 45.5991 139.498 53.0015 140.873C60.4039 142.247 68.0275 141.836 75.239 139.673C82.4506 137.51 89.042 133.657 94.4657 128.435C99.8894 123.213 103.989 116.773 106.424 109.648C108.859 102.524 109.559 94.9216 108.466 87.4724C107.372 80.0232 104.518 72.9423 100.139 66.8178C95.7596 60.6934 89.9824 55.7021 83.287 52.2586C76.5917 48.8151 69.1713 47.0188 61.6423 47.0188L61.6424 4.20117Z" fill="#F9B91B"/>
<path d="M61.6424 4.20117C75.9833 4.20117 90.1172 7.62278 102.87 14.1818C115.623 20.7409 126.628 30.248 134.969 41.9136C143.31 53.5793 148.747 67.0667 150.83 81.2556C152.912 95.4446 151.578 109.926 146.941 123.496C142.303 137.066 134.494 149.334 124.163 159.28C113.832 169.227 101.277 176.565 87.5408 180.685C73.8045 184.806 59.2834 185.589 45.1835 182.971C31.0837 180.352 17.8121 174.407 6.47096 165.63L32.6774 131.769C38.6315 136.377 45.5991 139.498 53.0015 140.873C60.4039 142.247 68.0275 141.836 75.239 139.673C82.4506 137.51 89.042 133.657 94.4657 128.435C99.8894 123.213 103.989 116.773 106.424 109.648C108.859 102.524 109.559 94.9216 108.466 87.4724C107.372 80.0232 104.518 72.9423 100.139 66.8178C95.7596 60.6934 89.9824 55.7021 83.287 52.2586C76.5917 48.8151 69.1713 47.0188 61.6423 47.0188L61.6424 4.20117Z" stroke="white" stroke-width="8.33333" mask="url(#path-1-outside-1_131_199)"/>
</svg>
