<svg width="185" height="189" viewBox="0 0 185 189" fill="none" xmlns="http://www.w3.org/2000/svg">
<mask id="path-1-outside-1_131_198" maskUnits="userSpaceOnUse" x="0.5" y="-0.798828" width="185" height="190" fill="black">
<rect fill="white" x="0.5" y="-0.798828" width="185" height="190"/>
<path d="M90.6424 4.20117C107.103 4.20117 123.25 8.70853 137.331 17.2343C151.412 25.7601 162.889 37.9788 170.518 52.565C178.148 67.1512 181.637 83.548 180.609 99.9767C179.58 116.405 174.072 132.239 164.683 145.759C155.294 159.28 142.382 169.972 127.348 176.674C112.313 183.377 95.7304 185.835 79.398 183.782C63.0657 181.728 47.6074 175.242 34.7 165.027C21.7925 154.811 11.9288 141.256 6.17864 125.832L46.2989 110.875C49.3177 118.973 54.4962 126.089 61.2726 131.452C68.049 136.815 76.1646 140.221 84.7391 141.299C93.3136 142.377 102.02 141.086 109.913 137.567C117.806 134.048 124.585 128.435 129.514 121.337C134.443 114.239 137.335 105.926 137.875 97.3009C138.415 88.6759 136.583 80.0675 132.577 72.4098C128.572 64.752 122.546 58.3372 115.154 53.8612C107.761 49.3852 99.2843 47.0188 90.6423 47.0188L90.6424 4.20117Z"/>
</mask>
<path d="M90.6424 4.20117C107.103 4.20117 123.25 8.70853 137.331 17.2343C151.412 25.7601 162.889 37.9788 170.518 52.565C178.148 67.1512 181.637 83.548 180.609 99.9767C179.58 116.405 174.072 132.239 164.683 145.759C155.294 159.28 142.382 169.972 127.348 176.674C112.313 183.377 95.7304 185.835 79.398 183.782C63.0657 181.728 47.6074 175.242 34.7 165.027C21.7925 154.811 11.9288 141.256 6.17864 125.832L46.2989 110.875C49.3177 118.973 54.4962 126.089 61.2726 131.452C68.049 136.815 76.1646 140.221 84.7391 141.299C93.3136 142.377 102.02 141.086 109.913 137.567C117.806 134.048 124.585 128.435 129.514 121.337C134.443 114.239 137.335 105.926 137.875 97.3009C138.415 88.6759 136.583 80.0675 132.577 72.4098C128.572 64.752 122.546 58.3372 115.154 53.8612C107.761 49.3852 99.2843 47.0188 90.6423 47.0188L90.6424 4.20117Z" fill="#FF569A"/>
<path d="M90.6424 4.20117C107.103 4.20117 123.25 8.70853 137.331 17.2343C151.412 25.7601 162.889 37.9788 170.518 52.565C178.148 67.1512 181.637 83.548 180.609 99.9767C179.58 116.405 174.072 132.239 164.683 145.759C155.294 159.28 142.382 169.972 127.348 176.674C112.313 183.377 95.7304 185.835 79.398 183.782C63.0657 181.728 47.6074 175.242 34.7 165.027C21.7925 154.811 11.9288 141.256 6.17864 125.832L46.2989 110.875C49.3177 118.973 54.4962 126.089 61.2726 131.452C68.049 136.815 76.1646 140.221 84.7391 141.299C93.3136 142.377 102.02 141.086 109.913 137.567C117.806 134.048 124.585 128.435 129.514 121.337C134.443 114.239 137.335 105.926 137.875 97.3009C138.415 88.6759 136.583 80.0675 132.577 72.4098C128.572 64.752 122.546 58.3372 115.154 53.8612C107.761 49.3852 99.2843 47.0188 90.6423 47.0188L90.6424 4.20117Z" stroke="white" stroke-width="8.33333" mask="url(#path-1-outside-1_131_198)"/>
</svg>
