<svg width="99" height="112" viewBox="0 0 99 112" fill="none" xmlns="http://www.w3.org/2000/svg">
<mask id="path-1-outside-1_131_200" maskUnits="userSpaceOnUse" x="-0.5" y="-0.798828" width="100" height="112" fill="black">
<rect fill="white" x="-0.5" y="-0.798828" width="100" height="112"/>
<path d="M4.64235 4.20117C17.4974 4.20117 30.2037 6.95066 41.9087 12.2651C53.6137 17.5796 64.0467 25.3361 72.5075 35.0142C80.9683 44.6923 87.2613 56.0681 90.9641 68.3783C94.667 80.6884 95.694 93.6482 93.9764 106.388L51.5427 100.667C52.4445 93.9785 51.9053 87.1746 49.9613 80.7118C48.0173 74.2489 44.7135 68.2766 40.2715 63.1956C35.8296 58.1146 30.3523 54.0425 24.2072 51.2524C18.062 48.4623 11.3912 47.0188 4.64235 47.0188L4.64235 4.20117Z"/>
</mask>
<path d="M4.64235 4.20117C17.4974 4.20117 30.2037 6.95066 41.9087 12.2651C53.6137 17.5796 64.0467 25.3361 72.5075 35.0142C80.9683 44.6923 87.2613 56.0681 90.9641 68.3783C94.667 80.6884 95.694 93.6482 93.9764 106.388L51.5427 100.667C52.4445 93.9785 51.9053 87.1746 49.9613 80.7118C48.0173 74.2489 44.7135 68.2766 40.2715 63.1956C35.8296 58.1146 30.3523 54.0425 24.2072 51.2524C18.062 48.4623 11.3912 47.0188 4.64235 47.0188L4.64235 4.20117Z" fill="#EC1A25"/>
<path d="M4.64235 4.20117C17.4974 4.20117 30.2037 6.95066 41.9087 12.2651C53.6137 17.5796 64.0467 25.3361 72.5075 35.0142C80.9683 44.6923 87.2613 56.0681 90.9641 68.3783C94.667 80.6884 95.694 93.6482 93.9764 106.388L51.5427 100.667C52.4445 93.9785 51.9053 87.1746 49.9613 80.7118C48.0173 74.2489 44.7135 68.2766 40.2715 63.1956C35.8296 58.1146 30.3523 54.0425 24.2072 51.2524C18.062 48.4623 11.3912 47.0188 4.64235 47.0188L4.64235 4.20117Z" stroke="white" stroke-width="8.33333" mask="url(#path-1-outside-1_131_200)"/>
</svg>
