<svg width="43" height="41" viewBox="0 0 43 41" fill="none" xmlns="http://www.w3.org/2000/svg">
<path d="M2.48177 35.8504C1.92924 35.8504 1.39933 36.0721 1.00863 36.4668C0.617931 36.8615 0.398438 37.3968 0.398438 37.955C0.398438 38.5131 0.617931 39.0485 1.00863 39.4431C1.39933 39.8378 1.92924 40.0596 2.48177 40.0596H39.9818C40.5343 40.0596 41.0642 39.8378 41.4549 39.4431C41.8456 39.0485 42.0651 38.5131 42.0651 37.955C42.0651 37.3968 41.8456 36.8615 41.4549 36.4668C41.0642 36.0721 40.5343 35.8504 39.9818 35.8504H2.48177Z" fill="#EC1A25"/>
<path d="M21.232 31.6409C21.7845 31.6409 22.3144 31.4192 22.7051 31.0245C23.0958 30.6298 23.3153 30.0945 23.3153 29.5363V7.24849L30.1695 14.1937C30.3631 14.391 30.5936 14.5475 30.8474 14.6544C31.1013 14.7612 31.3736 14.8162 31.6486 14.8162C31.9237 14.8162 32.196 14.7612 32.4498 14.6544C32.7037 14.5475 32.9341 14.391 33.1278 14.1937C33.3231 13.9981 33.4781 13.7653 33.5838 13.5088C33.6896 13.2524 33.7441 12.9773 33.7441 12.6994C33.7441 12.4216 33.6896 12.1465 33.5838 11.89C33.4781 11.6336 33.3231 11.4008 33.1278 11.2052L22.7111 0.68211C22.5175 0.484849 22.287 0.328278 22.0332 0.221429C21.7793 0.114581 21.507 0.0595703 21.232 0.0595703C20.9569 0.0595703 20.6846 0.114581 20.4308 0.221429C20.1769 0.328278 19.9465 0.484849 19.7528 0.68211L9.33614 11.2052C8.94384 11.6015 8.72345 12.139 8.72345 12.6994C8.72345 13.2599 8.94384 13.7974 9.33614 14.1937C9.72844 14.59 10.2605 14.8127 10.8153 14.8127C11.3701 14.8127 11.9022 14.59 12.2945 14.1937L19.1486 7.24849V29.5363C19.1486 30.0945 19.3681 30.6298 19.7588 31.0245C20.1495 31.4192 20.6794 31.6409 21.232 31.6409Z" fill="#EC1A25"/>
</svg>
