<svg width="18" height="18" viewBox="0 0 18 18" fill="none" xmlns="http://www.w3.org/2000/svg">
<path d="M1.47222 8.02973H7.30556C7.56341 8.02973 7.81069 7.9273 7.99302 7.74497C8.17535 7.56265 8.27778 7.31536 8.27778 7.05751V1.22418C8.27778 0.966326 8.17535 0.719037 7.99302 0.53671C7.81069 0.354383 7.56341 0.251953 7.30556 0.251953H1.47222C1.21437 0.251953 0.967084 0.354383 0.784757 0.53671C0.60243 0.719037 0.5 0.966326 0.5 1.22418V7.05751C0.5 7.31536 0.60243 7.56265 0.784757 7.74497C0.967084 7.9273 1.21437 8.02973 1.47222 8.02973ZM2.44444 2.1964H6.33333V6.08529H2.44444V2.1964Z" fill="#EC1A25"/>
<path d="M11.1945 8.02973H17.0278C17.2857 8.02973 17.5329 7.9273 17.7153 7.74497C17.8976 7.56265 18 7.31536 18 7.05751V1.22418C18 0.966326 17.8976 0.719037 17.7153 0.53671C17.5329 0.354383 17.2857 0.251953 17.0278 0.251953H11.1945C10.9366 0.251953 10.6893 0.354383 10.507 0.53671C10.3247 0.719037 10.2223 0.966326 10.2223 1.22418V7.05751C10.2223 7.31536 10.3247 7.56265 10.507 7.74497C10.6893 7.9273 10.9366 8.02973 11.1945 8.02973ZM12.1667 2.1964H16.0556V6.08529H12.1667V2.1964Z" fill="#EC1A25"/>
<path d="M1.47222 17.752H7.30556C7.56341 17.752 7.81069 17.6495 7.99302 17.4672C8.17535 17.2849 8.27778 17.0376 8.27778 16.7797V10.9464C8.27778 10.6886 8.17535 10.4413 7.99302 10.259C7.81069 10.0766 7.56341 9.9742 7.30556 9.9742H1.47222C1.21437 9.9742 0.967084 10.0766 0.784757 10.259C0.60243 10.4413 0.5 10.6886 0.5 10.9464V16.7797C0.5 17.0376 0.60243 17.2849 0.784757 17.4672C0.967084 17.6495 1.21437 17.752 1.47222 17.752ZM2.44444 11.9186H6.33333V15.8075H2.44444V11.9186Z" fill="#EC1A25"/>
<path d="M11.1945 17.752H17.0278C17.2857 17.752 17.5329 17.6495 17.7153 17.4672C17.8976 17.2849 18 17.0376 18 16.7797V10.9464C18 10.6886 17.8976 10.4413 17.7153 10.259C17.5329 10.0766 17.2857 9.9742 17.0278 9.9742H11.1945C10.9366 9.9742 10.6893 10.0766 10.507 10.259C10.3247 10.4413 10.2223 10.6886 10.2223 10.9464V16.7797C10.2223 17.0376 10.3247 17.2849 10.507 17.4672C10.6893 17.6495 10.9366 17.752 11.1945 17.752ZM12.1667 11.9186H16.0556V15.8075H12.1667V11.9186Z" fill="#EC1A25"/>
</svg>
