<svg width="18" height="20" viewBox="0 0 18 20" fill="none" xmlns="http://www.w3.org/2000/svg">
<path d="M7.30555 11.446H6.80555V11.946V18.7515C6.80555 18.8768 6.7558 18.9969 6.66724 19.0854C6.57869 19.174 6.45858 19.2237 6.33333 19.2237H1.47222C1.34698 19.2237 1.22687 19.174 1.13831 19.0854C1.04975 18.9969 1 18.8768 1 18.7515V7.08485C1 7.01154 1.01707 6.93924 1.04985 6.87367C1.08264 6.8081 1.13024 6.75106 1.18889 6.70708L8.96667 0.873741C9.04841 0.812437 9.14782 0.779297 9.25 0.779297C9.35217 0.779297 9.45159 0.812436 9.53333 0.873741L17.3111 6.70708C17.3698 6.75106 17.4174 6.8081 17.4501 6.87367C17.4829 6.93924 17.5 7.01155 17.5 7.08485V18.7515C17.5 18.8768 17.4502 18.9969 17.3617 19.0854C17.2731 19.174 17.153 19.2237 17.0278 19.2237H12.1667C12.0414 19.2237 11.9213 19.174 11.8328 19.0854C11.7442 18.9969 11.6944 18.8768 11.6944 18.7515V11.946V11.446H11.1944H7.30555ZM2.14444 7.17097L1.94444 7.32097V7.57097V17.7793V18.2793H2.44444H5.36111H5.86111V17.7793V10.9737C5.86111 10.8485 5.91086 10.7284 5.99942 10.6398C6.08798 10.5513 6.20809 10.5015 6.33333 10.5015H12.1667C12.2919 10.5015 12.412 10.5513 12.5006 10.6398C12.5891 10.7284 12.6389 10.8485 12.6389 10.9737V17.7793V18.2793H13.1389H16.0556H16.5556V17.7793V7.57097V7.32097L16.3556 7.17097L9.55 2.0668L9.25 1.8418L8.95 2.0668L2.14444 7.17097Z" fill="#EC14A5" stroke="white"/>
</svg>
