<svg width="20" height="18" viewBox="0 0 20 18" fill="none" xmlns="http://www.w3.org/2000/svg">
<path d="M17.0278 0.251953H3.41667C1.76389 0.251953 0.5 1.51584 0.5 3.16862V14.8353C0.5 16.4881 1.76389 17.752 3.41667 17.752H17.0278C18.6806 17.752 19.9444 16.4881 19.9444 14.8353V3.16862C19.9444 1.51584 18.6806 0.251953 17.0278 0.251953ZM17.0278 2.1964C17.2222 2.1964 17.3194 2.29362 17.4167 2.29362L10.2222 9.58529L2.93056 2.29362C3.125 2.29362 3.22222 2.1964 3.41667 2.1964H17.0278ZM18 14.8353C18 15.4186 17.6111 15.8075 17.0278 15.8075H3.41667C2.83333 15.8075 2.44444 15.4186 2.44444 14.8353V4.52973L9.54167 11.627C9.93056 12.0158 10.5139 12.0158 10.9028 11.627L18 4.52973V14.8353Z" fill="#EC1A25"/>
</svg>
