<svg width="20" height="21" viewBox="0 0 20 21" fill="none" xmlns="http://www.w3.org/2000/svg">
<path d="M10.2223 7.41879H12.1667C12.4246 7.41879 12.6719 7.31636 12.8542 7.13403C13.0365 6.95171 13.1389 6.70442 13.1389 6.44657C13.1389 6.18872 13.0365 5.94143 12.8542 5.7591C12.6719 5.57678 12.4246 5.47435 12.1667 5.47435H11.1945C11.1945 5.2165 11.0921 4.96921 10.9097 4.78688C10.7274 4.60456 10.4801 4.50213 10.2223 4.50213C9.96442 4.50213 9.71714 4.60456 9.53481 4.78688C9.35248 4.96921 9.25005 5.2165 9.25005 5.47435V5.64935C8.60705 5.88266 8.06651 6.33454 7.72291 6.926C7.37932 7.51746 7.25453 8.21087 7.37036 8.88501C7.48619 9.55915 7.83527 10.1711 8.35659 10.614C8.8779 11.0568 9.53827 11.3024 10.2223 11.3077C10.4801 11.3077 10.7274 11.4101 10.9097 11.5924C11.0921 11.7748 11.1945 12.0221 11.1945 12.2799C11.1945 12.5378 11.0921 12.785 10.9097 12.9674C10.7274 13.1497 10.4801 13.2521 10.2223 13.2521H8.27783C8.01998 13.2521 7.77269 13.3546 7.59036 13.5369C7.40804 13.7192 7.30561 13.9665 7.30561 14.2243C7.30561 14.4822 7.40804 14.7295 7.59036 14.9118C7.77269 15.0941 8.01998 15.1966 8.27783 15.1966H9.25005C9.25005 15.4544 9.35248 15.7017 9.53481 15.884C9.71714 16.0664 9.96442 16.1688 10.2223 16.1688C10.4801 16.1688 10.7274 16.0664 10.9097 15.884C11.0921 15.7017 11.1945 15.4544 11.1945 15.1966V15.0216C11.8375 14.7883 12.378 14.3364 12.7216 13.7449C13.0652 13.1535 13.19 12.46 13.0742 11.7859C12.9584 11.1118 12.6093 10.4998 12.088 10.0569C11.5666 9.61408 10.9063 9.36854 10.2223 9.36324C9.96442 9.36324 9.71714 9.26081 9.53481 9.07848C9.35248 8.89615 9.25005 8.64886 9.25005 8.39101C9.25005 8.13316 9.35248 7.88588 9.53481 7.70355C9.71714 7.52122 9.96442 7.41879 10.2223 7.41879Z" fill="#EC1A25"/>
<path d="M10.2222 0.613281C8.29935 0.613281 6.41966 1.18348 4.82085 2.25177C3.22204 3.32006 1.97592 4.83847 1.24006 6.61497C0.504213 8.39147 0.31168 10.3463 0.686814 12.2322C1.06195 14.1181 1.9879 15.8505 3.34758 17.2102C4.70725 18.5698 6.43959 19.4958 8.32552 19.8709C10.2114 20.2461 12.1663 20.0535 13.9428 19.3177C15.7193 18.5818 17.2377 17.3357 18.306 15.7369C19.3742 14.1381 19.9444 12.2584 19.9444 10.3355C19.9444 9.05876 19.693 7.79452 19.2044 6.61497C18.7158 5.43542 17.9997 4.36365 17.0969 3.46085C16.1941 2.55806 15.1223 1.84193 13.9428 1.35334C12.7632 0.864754 11.499 0.613281 10.2222 0.613281ZM10.2222 18.1133C8.68393 18.1133 7.18017 17.6571 5.90112 16.8025C4.62208 15.9479 3.62518 14.7331 3.0365 13.3119C2.44782 11.8907 2.29379 10.3269 2.5939 8.81814C2.894 7.30939 3.63477 5.92353 4.72251 4.83578C5.81025 3.74804 7.19612 3.00728 8.70486 2.70717C10.2136 2.40707 11.7775 2.56109 13.1987 3.14977C14.6199 3.73846 15.8346 4.73535 16.6892 6.0144C17.5438 7.29345 18 8.79721 18 10.3355C18 12.3983 17.1806 14.3766 15.7219 15.8352C14.2633 17.2938 12.285 18.1133 10.2222 18.1133Z" fill="#EC1A25"/>
</svg>
