<svg width="20" height="20" viewBox="0 0 20 20" fill="none" xmlns="http://www.w3.org/2000/svg">
<path d="M13.6931 9.41687C14.525 8.70703 15.1192 7.75918 15.3957 6.70113C15.6722 5.64307 15.6176 4.52567 15.2394 3.49959C14.8611 2.4735 14.1773 1.58807 13.2802 0.962665C12.3831 0.337259 11.3158 0.00195312 10.2222 0.00195312C9.12864 0.00195312 8.06134 0.337259 7.16423 0.962665C6.26712 1.58807 5.58334 2.4735 5.20507 3.49959C4.8268 4.52567 4.77224 5.64307 5.04873 6.70113C5.32523 7.75918 5.91949 8.70703 6.75139 9.41687C4.91415 10.119 3.33308 11.3619 2.21696 12.9814C1.10084 14.6009 0.502173 16.5209 0.5 18.4877C0.5 18.7456 0.60243 18.9928 0.784757 19.1752C0.967084 19.3575 1.21437 19.4599 1.47222 19.4599C1.73007 19.4599 1.97736 19.3575 2.15969 19.1752C2.34201 18.9928 2.44444 18.7456 2.44444 18.4877C2.44444 16.4249 3.26389 14.4466 4.7225 12.988C6.18112 11.5294 8.15943 10.7099 10.2222 10.7099C12.285 10.7099 14.2633 11.5294 15.7219 12.988C17.1806 14.4466 18 16.4249 18 18.4877C18 18.7456 18.1024 18.9928 18.2848 19.1752C18.4671 19.3575 18.7144 19.4599 18.9722 19.4599C19.2301 19.4599 19.4774 19.3575 19.6597 19.1752C19.842 18.9928 19.9444 18.7456 19.9444 18.4877C19.9423 16.5209 19.3436 14.6009 18.2275 12.9814C17.1114 11.3619 15.5303 10.119 13.6931 9.41687ZM10.2222 8.76548C9.54922 8.76548 8.89133 8.56591 8.33174 8.19201C7.77216 7.8181 7.33601 7.28666 7.07847 6.66489C6.82092 6.04311 6.75353 5.35892 6.88483 4.69885C7.01613 4.03878 7.34021 3.43246 7.8161 2.95657C8.29198 2.48068 8.8983 2.1566 9.55837 2.0253C10.2184 1.89401 10.9026 1.96139 11.5244 2.21894C12.1462 2.47649 12.6776 2.91263 13.0515 3.47222C13.4254 4.0318 13.625 4.68969 13.625 5.3627C13.625 6.26517 13.2665 7.13068 12.6284 7.76883C11.9902 8.40697 11.1247 8.76548 10.2222 8.76548Z" fill="#EC1A25"/>
</svg>
